# xmcd CD database file
#
# Track frame offsets:
#	150
#	38583
#	78395
#	104578
#	149443
#	188713
#
# Disc length: 3388 seconds
#
# Revision: 1
# Processed by: cddbd v1.5.2PL0 Copyright (c) Steve Scherf et al.
# Submitted via: CDex 1.51
#
DISCID=4a0d3a06
DTITLE=Gulden, Thewes Little Big Band - Greyhound
DYEAR=2004
DGENRE=Jazz
TTITLE0=Gegen K.
TTITLE1=It Was You
TTITLE2=Too Much At Once
TTITLE3=I Got To Know
TTITLE4=How You Held It
TTITLE5=Too Soon - Exit
EXTD=YEAR: 2004
EXTT0=
EXTT1=
EXTT2=
EXTT3=
EXTT4=
EXTT5=
PLAYORDER=
